<svg xmlns:xlink="http://www.w3.org/1999/xlink" viewBox="0 0 280 280" fill="none" xmlns="http://www.w3.org/2000/svg" width="280"  height="280" >
<path d="M30 140C30 118.244 36.4514 96.9767 48.5383 78.8873C60.6253 60.7979 77.8049 46.6989 97.9048 38.3733C118.005 30.0477 140.122 27.8693 161.46 32.1137C182.798 36.358 202.398 46.8345 217.782 62.2183C233.165 77.6021 243.642 97.2022 247.886 118.54C252.131 139.878 249.952 161.995 241.627 182.095C233.301 202.195 219.202 219.375 201.113 231.462C183.023 243.549 161.756 250 140 250C110.826 250 82.8472 238.411 62.2182 217.782C41.5892 197.153 30 169.174 30 140Z" fill="#F6F6F6"></path>
<path d="M90.6581 191.619C84.0164 188.884 78.7332 183.622 75.9707 176.992C73.2082 170.362 73.1928 162.905 75.9277 156.264L104.212 87.5875C105.567 84.2989 107.556 81.3092 110.065 78.7891C112.575 76.2691 115.556 74.268 118.839 72.9002C122.123 71.5324 125.643 70.8247 129.199 70.8174C132.756 70.8101 136.279 71.5033 139.568 72.8576C142.857 74.2119 145.846 76.2007 148.366 78.7104C150.886 81.2201 152.887 84.2016 154.255 87.4847C155.623 90.7677 156.331 94.2881 156.338 97.8446C156.345 101.401 155.652 104.924 154.298 108.213L126.013 176.889C124.659 180.178 122.67 183.168 120.16 185.688C117.651 188.208 114.669 190.209 111.386 191.576C108.103 192.944 104.583 193.652 101.026 193.659C97.4698 193.666 93.9466 192.973 90.6581 191.619Z" fill="#FFFFFF" stroke="#154094" stroke-width="9px" stroke-miterlimit="10"></path>
<path d="M131.645 139.038L145.047 106.321C148.624 97.5833 144.139 87.4701 135.024 83.7383C125.909 80.0065 115.618 84.0592 112.037 92.7939L98.6359 125.51L131.645 139.038Z" fill="#154094"></path>
<path d="M98.6347 125.511L85.2336 158.228C81.6561 166.966 86.1413 177.079 95.2562 180.811C104.371 184.543 114.662 180.49 118.243 171.755L131.644 139.039L98.6347 125.511Z" fill="#E3000F"></path>
<path d="M202.427 153.338C202.427 170.828 188.461 184.899 171.366 184.899C154.271 184.899 140.306 170.828 140.306 153.338C140.306 135.848 154.271 121.777 171.366 121.777C188.461 121.777 202.427 135.848 202.427 153.338Z" fill="#FFFFFF" stroke="#154094" stroke-width="9px"></path>
<path d="M150.017 152.604H192.5" stroke="#E3000F" stroke-width="9px" fill="none"></path>
<path d="M171.259 174.404V131.921" stroke="#E3000F" stroke-width="9px" fill="none"></path>
</svg>