<svg xmlns="http://www.w3.org/2000/svg" shape-rendering="geometricPrecision" text-rendering="geometricPrecision" image-rendering="optimizeQuality" fill-rule="evenodd" clip-rule="evenodd" viewBox="0 0 512 502.1"><path fill-rule="nonzero" d="M499.6 330.45c8.63 12.74 12.29 26.51 12.4 40.42.15 20.05-7.16 40.14-17.35 57.7-11.16 19.21-27.66 36.93-46.4 50.06-18.15 12.71-38.59 21.27-58.59 22.97l-.7.04c-9.49.76-18.85.71-28.09-1.22-9.81-2.05-19.48-6.16-28.98-13.49L21.88 194.19a9.718 9.718 0 0 1-.38-13.74L180.42 23.14c3.8-3.77 10.63-4.45 14.41-.67l302.24 303.57a9.762 9.762 0 0 1 2.53 4.41z"/><path fill="#93622C" d="M485.5 328.21c26.25 29.03 17.93 65.85.74 95.46-20.4 35.15-60.09 65.06-97.39 68.24-17.66 1.5-34.63-.02-51.01-12.66L28.56 187.13l158.71-157.1 302.91 302.91-4.68-4.73z"/><path fill-rule="nonzero" d="M349.16 197.05c.26-3.11 3-5.43 6.11-5.17 3.11.26 5.42 3 5.16 6.11-1.24 15.03.44 29.21 4.51 42.64 4.1 13.53 10.65 26.43 19.1 38.77 1.76 2.58 1.1 6.1-1.48 7.86-2.57 1.77-6.09 1.1-7.86-1.47-9.06-13.25-16.11-27.17-20.57-41.87-4.48-14.8-6.33-30.37-4.97-46.87zM198.55 109.1a5.632 5.632 0 0 1-.15-7.98 5.641 5.641 0 0 1 7.98-.16c46.02 43.95 81.79 92.69 109.3 137.52 27.56 44.92 46.73 85.64 59.64 113.8 1.31 2.84.06 6.22-2.78 7.52a5.663 5.663 0 0 1-7.52-2.79c-12.88-28.06-31.95-68.59-58.96-112.61-27.08-44.13-62.27-92.1-107.51-135.3zm-30.7 54.93c-2.59-1.76-3.27-5.28-1.51-7.86s5.28-3.26 7.86-1.51c15.94 10.76 28.38 24.5 39.53 36.82 9.2 10.15 17.49 19.31 25.74 24.4 2.65 1.65 3.47 5.15 1.81 7.8-1.65 2.65-5.15 3.46-7.79 1.81-9.53-5.87-18.34-15.61-28.12-26.4-10.71-11.83-22.65-25.02-37.52-35.06zm-57.92 31.92c-1.09-2.92.4-6.18 3.32-7.27a5.66 5.66 0 0 1 7.26 3.33c10.31 27.7 34.92 43.35 60.89 59.87 26.21 16.67 53.75 34.18 71.2 65.74 1.52 2.73.54 6.18-2.19 7.71-2.73 1.52-6.18.53-7.71-2.2-16.11-29.13-42.37-45.83-67.38-61.73-27.6-17.55-53.77-34.2-65.39-65.45zm148.99 66.02c-1.22-2.86.14-6.18 3-7.39s6.18.14 7.39 3.01c1.67 3.97 7.69 12.59 15.01 23.04 9.42 13.44 20.92 29.88 28.96 45.07 1.47 2.76.41 6.19-2.35 7.65-2.75 1.46-6.18.4-7.64-2.35-7.64-14.45-18.97-30.63-28.24-43.86-7.64-10.9-13.93-19.9-16.13-25.17zm86.67 140.47c2.87 1.22 4.22 4.53 3.01 7.39-1.22 2.87-4.53 4.22-7.39 3.01-5.63-2.36-13.76-8.77-23.36-16.35-17.56-13.86-40.47-31.94-56.19-32.3a5.652 5.652 0 0 1 .28-11.3c19.5.44 44.1 19.85 62.96 34.73 8.99 7.1 16.6 13.11 20.69 14.82zm88.08 75.45c.9 2.99-.8 6.15-3.79 7.05-2.99.9-6.15-.8-7.05-3.79-2.38-8.01-7.36-15.4-14.45-22.27-7.39-7.14-17.12-13.73-28.69-19.87-2.75-1.46-3.81-4.89-2.35-7.64 1.47-2.75 4.89-3.81 7.65-2.35 12.44 6.61 23.03 13.81 31.25 21.75 8.5 8.22 14.48 17.22 17.43 27.12zm-22.77-92.81c-1.25-2.85.05-6.2 2.91-7.45 2.85-1.25 6.2.06 7.45 2.91 7.78 17.83 31.52 36.74 46.57 48.74 3.93 3.12 7.3 5.81 9.79 8 2.34 2.07 2.57 5.65.5 7.99s-5.64 2.57-7.98.5c-2.24-1.97-5.54-4.6-9.38-7.66-15.9-12.66-40.96-32.63-49.86-53.03zm8.76-55.32c-1.71-2.62-.96-6.12 1.66-7.83s6.12-.96 7.83 1.66c16.05 24.75 33.32 37.77 47.54 48.5 10.12 7.64 18.82 14.19 25.05 23.16a5.647 5.647 0 0 1-9.27 6.45c-5.18-7.44-13.23-13.52-22.6-20.59-14.95-11.27-33.09-24.96-50.21-51.35z"/><path fill-rule="nonzero" d="M94.17 214.37c-27.87 4.36-54.26-2.07-72.52-20.33-18.27-18.27-24.7-44.66-20.34-72.53 4.2-26.76 18.47-55 41.84-78.36C66.51 19.78 94.76 5.51 121.51 1.32c27.88-4.37 54.25 2.06 72.52 20.33 18.27 18.27 24.7 44.65 20.33 72.52-4.18 26.76-18.46 55-41.83 78.36-23.36 23.37-51.6 37.64-78.36 41.84z"/><path fill="#C69C6D" d="M30 185.68c31.35 31.35 91.61 21.91 134.6-21.08 42.99-42.99 52.42-103.25 21.08-134.6C154.33-1.34 94.07 8.1 51.08 51.09 8.09 94.07-1.35 154.33 30 185.68z"/><path fill-rule="nonzero" d="M70.08 76.46a6.91 6.91 0 0 1 11.59 7.53c-3.87 5.97-6.16 11.59-7.3 16.8a38.372 38.372 0 0 0-.43 14.25c1.39 8.96 5.18 16.14 10.38 21.19a30.57 30.57 0 0 0 16.35 8.25c6.15 1.02 12.78.18 19.13-2.75 8.06-3.71 15.77-10.77 21.81-21.63 2.34-4.22 4.25-8.32 5.58-12.23 1.26-3.73 2.01-7.35 2.12-10.8.19-6.12-2.24-12.52-6.17-17.76-2.9-3.86-6.58-7.04-10.54-8.95-3.6-1.72-7.47-2.39-11.19-1.5-3.46.83-6.95 3.04-10.21 6.99-3.51 4.25-5.89 9.61-6.62 14.73-.46 3.17-.27 6.17.72 8.56.82 1.98 2.28 3.61 4.49 4.57 2.52 1.11 6.04 1.51 10.7.92 3.79-.49 7.24 2.19 7.73 5.97.48 3.78-2.19 7.24-5.97 7.72-7.34.93-13.31.11-18.01-1.95-5.76-2.52-9.57-6.76-11.71-11.95-1.96-4.75-2.41-10.25-1.61-15.79 1.09-7.54 4.55-15.4 9.65-21.58 5.33-6.48 11.4-10.17 17.62-11.65 6.98-1.67 14.02-.54 20.4 2.53 6.01 2.89 11.43 7.52 15.6 13.08 5.7 7.6 9.22 17.11 8.93 26.47-.15 4.89-1.16 9.84-2.85 14.83-1.62 4.79-3.87 9.64-6.58 14.51-7.56 13.62-17.51 22.59-28.08 27.45-8.97 4.14-18.39 5.32-27.19 3.86-8.84-1.46-17.1-5.59-23.73-12.03-7.27-7.06-12.54-16.88-14.41-28.96-.93-5.95-.91-12.42.59-19.3 1.47-6.75 4.36-13.9 9.21-21.38z"/></svg>